<svg width="511.99933" height="511" xmlns="http://www.w3.org/2000/svg">

 <g>
  <title>background</title>
  <rect fill="none" id="canvas_background" height="513" width="513.98627" y="-1" x="-1"/>
 </g>
 <g>
  <title>Layer 1</title>
  <path fill="#50a8f7" id="svg_1" d="m505.87109,140.69922l-376.86328,-139.62109c-4.82031,-1.78126 -10.17578,0.68359 -11.95312,5.50781c-0.00391,0.0039 -0.00391,0.00781 -0.00781,0.01172l-41.71875,113.55859c-1.77344,4.82422 0.69921,10.17578 5.52343,11.94922l0.00782,0l43.68359,16.03906l-9.625,26.22266c-1.76953,4.82422 0.70312,10.16797 5.52734,11.9414l87.38282,32.08204l-6.42188,17.48046c-5.83594,15.65625 -0.39062,33.28125 13.26563,42.91016l0,47.5l-125.24219,0c-6.0625,-13.85937 -18.46875,-23.92187 -33.28516,-26.99219l0,-19.54687c0,-5.14063 -4.16406,-9.3086 -9.30859,-9.3086l-37.52735,0c-5.14062,0 -9.30859,4.16797 -9.30859,9.3086l0,148.92578c0,5.14453 4.16797,9.30859 9.30859,9.30859l37.52735,0c5.14453,0 9.30859,-4.16406 9.30859,-9.30859l0,-19.54297c14.81641,-3.07422 27.22266,-13.13281 33.28516,-26.99609l125.24219,0l0,9.30859c0,15.42188 12.5,27.92578 27.92187,27.92578s27.92578,-12.5039 27.92578,-27.92578l0,-103.11328c8.46094,-4.19531 14.9961,-11.47266 18.25391,-20.33984l6.42187,-17.48047l78.64063,28.85547c1.02734,0.3789 2.10937,0.57031 3.20312,0.57031c3.90235,0 7.39453,-2.4336 8.74219,-6.09766l3.48828,-9.5039c30.28906,5.69921 59.46094,-14.23438 65.15625,-44.51954c2.10547,-11.1914 0.73828,-22.75781 -3.91797,-33.14843l56.42578,-28.97266c4.57422,-2.34375 6.38282,-7.95312 4.03907,-12.52734c-1.0625,-2.07813 -2.86719,-3.67969 -5.05469,-4.48828l-0.04688,0.02734zm-272.58593,146.5625l7.70703,2.79297c3.50781,1.25781 7.1875,1.98047 10.91015,2.14062l0,34.08594l-18.61718,0l0,-39.01953zm-195.75391,132.10156l-18.91406,0l0,-130.3125l18.91406,0l0,130.3125zm37.23047,-55.84765c-0.01563,11.82812 -7.46875,22.37109 -18.61719,26.33203l0,-71.28125c11.14844,3.95703 18.60156,14.5 18.61719,26.33203l0,18.61719zm18.90625,-18.61719l158.23437,0l0,18.61719l-158.23437,0l0,-18.61719zm148.92578,55.84765c-5.14062,0 -9.30859,-4.16797 -9.30859,-9.30859l0,-9.30859l18.61718,0l0,9.30859c0,5.14063 -4.16796,9.30859 -9.30859,9.30859zm35.12891,-156.65234l-6.42188,17.48047c-3.54687,9.64062 -14.23828,14.58594 -23.88672,11.04687l-17.50781,-6.41406c-9.64844,-3.54297 -14.60156,-14.23828 -11.05859,-23.89062c0,0 0,0 0,-0.00391l6.42578,-17.46875l47.17969,17.32031l5.26953,1.92969zm93.79687,14.61328l-235.92187,-86.63281l6.42578,-17.48047l139.79687,51.33594c3.3086,1.20312 7.01953,0.44922 9.59375,-1.95703l26.1211,-24.58985l73.23437,26.89844l-19.25,52.42578zm62.9336,-36.37891c-5.89844,15.90235 -21.76172,25.83985 -38.64063,24.20313l14.38281,-39.17969l23.49219,-12.09765c3.67578,8.60156 3.94922,18.28125 0.76563,27.07421zm-31.41797,-32.18359c-0.49219,0.04297 -0.98047,0.12891 -1.46094,0.25781l-82.98828,-30.47265c-3.3086,-1.21485 -7.01953,-0.46094 -9.58985,1.95312l-26.15234,24.59375l-186.83203,-68.60937l35.28906,-96.08594l348.26563,129.02734l-76.53125,39.33594zm0,0"/>
  <path fill="#50a8f7" id="svg_2" d="m172.32813,126.05469l6.41406,-17.47656l17.47656,6.41796l-6.41797,17.47657l-17.47265,-6.41797zm0,0"/>
  <path fill="#50a8f7" id="svg_3" d="m207.27734,138.88672l6.41407,-17.47656l17.47656,6.41797l-6.41797,17.47265l-17.47266,-6.41406zm0,0"/>
  <path fill="#50a8f7" id="svg_4" d="m242.22656,151.72656l6.41797,-17.47656l17.47266,6.41797l-6.41797,17.47656l-17.47266,-6.41797zm0,0"/>
 </g>
</svg>
