<svg width="350" height="350" xmlns="http://www.w3.org/2000/svg">
 <g>
  <title>background</title>
  <rect fill="none" id="canvas_background" height="352" width="352" y="-1" x="-1"/>
 </g>

 <g>
  <title>Layer 1</title>
  <path fill="#cbcbcb" d="m252.6613,118.17578c-3.82939,2.02344 -5.54409,6.53516 -4.00363,10.54297c2.14635,9.57031 -0.24156,19.58594 -6.49451,27.20703c-5.63518,8.27735 -15.12746,13.1836 -25.23355,13.04688c-13.78895,-0.74219 -16.93721,-6.40625 -17.97475,-8.26953c-5.34213,-9.625 -0.41976,-28.15235 7.21525,-41.5c17.47578,-30.76954 -8.43099,-57.48829 -16.78277,-64.94141c-0.18612,-0.16016 -0.80785,-0.66016 -1.00586,-0.80859c-24.97218,-18.77344 -51.44523,-35.51172 -79.1657,-50.0586l-0.02772,-0.01953l-0.03168,-0.01172c-4.16203,-2.12109 -9.2824,-0.58594 -11.5436,3.46094c-2.26516,4.04687 -0.85142,9.13281 3.18785,11.47656c3.32249,5.70703 5.59557,11.94531 6.71627,18.4336c0.44749,1.72656 0.83161,3.20312 1.12465,4.16406c2.58197,8.84765 3.81355,18.02344 3.64723,27.22656c-0.85141,17.71484 -6.68459,34.84375 -16.84613,49.47266c-8.18546,12.22265 -17.24213,23.85156 -27.11061,34.79687c-9.27844,10.42578 -17.94307,21.36328 -25.95429,32.76172c-22.09322,30.83594 -22.11697,72.05469 -0.0594,102.91406c27.23735,37.92578 79.93,60.1836 132.83254,60.1836c20.10922,0.09765 40.07588,-3.28907 58.99709,-10c30.28263,-10.41407 55.95971,-30.8711 72.65536,-57.87891l0,-0.00391c27.19377,-47.0039 12.71181,-101.10546 -43.05385,-160.79687c-3.0057,-2.76953 -7.47265,-3.33594 -11.08819,-1.39844zm-107.30595,118.45703c-1.59591,-1.10156 -6.45491,-4.44922 -0.85141,-13.15234c4.87088,-6.14844 9.99124,-12.04688 15.36506,-17.69141c0.80785,3.52344 2.02359,6.94532 3.6195,10.19532c7.46473,15.13671 25.99388,25.60156 43.91715,35.72656c17.22233,9.73437 35.03471,19.79687 37.90181,31.40234c0.95042,5.91797 -0.64549,11.96094 -4.40359,16.67188c-8.39931,11.2539 -20.11318,19.67968 -33.54573,24.13281c-24.1881,8.83203 -60.22867,10.08594 -82.28624,-4.59375c-3.19182,-2.05859 -5.99555,-4.64844 -8.28842,-7.65625c-4.8392,-7.02734 -6.83113,-15.58984 -5.57577,-23.99219c0.2178,-2.10547 1.28702,-7.75 2.58196,-13.17187c0.53461,0.42578 1.08506,0.83984 1.65531,1.23828c8.85075,6.47265 20.33099,8.3125 30.80537,4.9375c12.10593,-4.15235 15.49575,-11.17969 16.21252,-16.33985c1.93251,-13.89453 -13.9236,-25.52734 -17.10749,-27.70703zm146.42745,35.27344c-8.95371,14.84375 -21.31704,27.40625 -36.09205,36.67188c6.21334,-8.52344 8.54186,-19.21875 6.42322,-29.50782c-4.62536,-18.72656 -25.71667,-30.64453 -46.11498,-42.16797c-15.64227,-8.83984 -31.81914,-17.98046 -36.94743,-28.38281c-1.56423,-3.17187 -2.54632,-6.58984 -2.90669,-10.10156c-0.04752,-0.5586 -0.14256,-1.31641 -0.26533,-2.20703c-0.29701,-1.89844 -0.45541,-3.81641 -0.47521,-5.73828c2.43545,-3.57813 1.78599,-8.38282 -1.51274,-11.20313c-3.3027,-2.82422 -8.21714,-2.77734 -11.46044,0.10938l-0.06732,0.05859c-11.44459,10.28125 -21.97838,21.5 -31.49837,33.53516c-0.17028,0.21484 -0.47917,0.64453 -0.62569,0.87109c-9.02895,13.94531 -6.97764,28.38281 5.23125,36.79297c4.48279,2.5625 7.9637,6.53125 9.88433,11.27344c-0.00792,0.01172 -0.77221,1.26953 -4.80752,2.65625c-4.8392,1.43359 -10.07441,0.63281 -14.24833,-2.17969c-2.28495,-1.19141 -4.08679,-3.12891 -5.08869,-5.48047c0.02376,-4.33984 -3.2631,-8.00781 -7.63105,-8.51953c-0.54253,-0.06641 -1.08902,-0.10156 -1.63551,-0.10156c-13.24247,0.33593 -17.09166,28.96875 -17.95098,37.73047c-1.09298,9.15625 0.22572,18.4375 3.82938,26.94531c-16.35112,-8.25781 -30.5242,-20.16406 -41.39458,-34.77344c-17.81634,-25.14062 -17.66586,-58.61328 0.3762,-83.59766c7.63897,-10.84375 15.89968,-21.2539 24.73855,-31.17578c10.40705,-11.57812 19.95874,-23.875 28.58376,-36.79687c11.7812,-17.25781 18.51332,-37.38281 19.4558,-58.16406c0.19801,-10.92188 -1.26326,-21.8086 -4.33231,-32.30469c-0.26929,-0.90235 -0.59005,-2.15625 -0.97022,-3.62891c-0.12277,-0.48047 -0.24553,-0.94922 -0.37225,-1.42578c18.62024,10.9375 36.6029,22.89844 53.86483,35.82813c5.95594,5.30859 24.52074,24.18359 13.30979,43.91796c-9.25468,16.1836 -16.72337,41.10157 -7.30237,58.0625c6.75192,11.07813 19.09545,17.64063 32.18743,17.11329c15.97492,0.57812 31.13405,-6.97266 40.14321,-20c4.18183,-5.59375 7.29048,-11.89063 9.17151,-18.58594c38.24237,46.93359 47.16837,88.75 26.50078,124.47656zm0,0" id="svg_2"/>
 </g>
</svg>
