<svg width="512" height="512" xmlns="http://www.w3.org/2000/svg">
 <g>
  <title>background</title>
  <rect x="-1" y="-1" width="514" height="514" id="canvas_background" fill="none"/>
 </g>

 <g>
  <title>Layer 1</title>
  <path fill="#50a8f7" d="m488.57811,295.58762l-70.50781,0l0,-51.2256l11.12539,0c12.27578,0 22.26562,-9.85136 22.26562,-21.95697l0,-73.20453c0,-12.10561 -9.98984,-21.95697 -22.26562,-21.95697l-59.39726,0c-12.27578,0 -22.26562,9.85136 -22.26562,21.95697l0,21.96429l-66.78203,0l0,-29.26132c0,-12.10561 -9.98984,-21.95697 -22.26562,-21.95697l-29.68008,0l0,-1.37597c8.62422,-3.03006 14.85117,-11.07363 14.85117,-20.61027c0,-12.10561 -9.98984,-21.95697 -22.26562,-21.95697s-22.26562,9.85136 -22.26562,21.95697c0,9.52932 6.21953,17.57289 14.83633,20.60295l0,1.37597l-29.6875,0c-12.27578,0 -22.26562,9.85136 -22.26562,21.95697l0,109.77019l-22.2582,0l0,-14.6087c0,-4.0474 -3.31758,-7.31899 -7.42187,-7.31899l-29.6875,0l0,-146.42369c0,-4.0474 -3.31758,-7.31899 -7.42187,-7.31899s-7.42187,3.27159 -7.42187,7.31899l0,146.43101l-14.84375,0l0,-146.43101c0,-4.0474 -3.31758,-7.31899 -7.42187,-7.31899s-7.42187,3.27159 -7.42187,7.31899l0,146.43101l-29.6875,0c-4.1043,0 -7.42187,3.27159 -7.42187,7.31899l0,197.62002c0,4.0474 3.31758,7.31899 7.42187,7.31899l103.90625,0c4.1043,0 7.42187,-3.27159 7.42187,-7.31899l0,-146.41637l22.2582,0l0,131.77107c0,12.10561 9.98984,21.95697 22.26562,21.95697l74.21133,0c12.27578,0 22.26562,-9.85136 22.26562,-21.95697l0,-212.27995l66.78203,0l0,14.6453c0,12.10561 9.98984,21.95697 22.26562,21.95697l11.1625,0l0,51.2256l-70.52265,0c-4.1043,0 -7.42187,3.27159 -7.42187,7.31899l0,131.76376c0,4.0474 3.31758,7.31899 7.42187,7.31899l178.13984,0c4.1043,0 7.42187,-3.27159 7.42187,-7.31899l0,-131.76376c0,-4.0474 -3.31758,-7.31899 -7.42187,-7.31899l-0.00004,0zm-363.67186,131.77839l-89.0625,0l0,-29.29059l89.0625,0l0,29.29059zm0,-43.92857l-89.0625,0l0,-65.84894l7.42187,0l0,51.2256c0,4.0474 3.31758,7.31899 7.42187,7.31899l59.375,0c4.1043,0 7.42187,-3.27159 7.42187,-7.31899l0,-51.2256l7.42187,0l0,65.84894l0.00002,0zm-66.79687,-21.94233l0,-43.90661l44.53125,0l0,43.90661l-44.53125,0zm66.79687,-58.54459l-14.80664,0c-0.01484,0 -0.02227,-0.00732 -0.03711,-0.00732s-0.02227,0.00732 -0.03711,0.00732l-59.30078,0c-0.01484,0 -0.02227,-0.00732 -0.03711,-0.00732s-0.02227,0.00732 -0.03711,0.00732l-14.80664,0l0,-58.56655l89.0625,0l0,58.56655zm37.10195,-29.31987l-22.2582,0l0,-7.31899l22.2582,0l0,7.31899zm59.38242,-182.98936c4.09687,0 7.42187,3.27891 7.42187,7.31899s-3.325,7.31899 -7.42187,7.31899s-7.42187,-3.27891 -7.42187,-7.31899s3.325,-7.31899 7.42187,-7.31899zm44.5164,329.39841c0,4.04008 -3.325,7.31899 -7.42187,7.31899l-74.21133,0c-4.09687,0 -7.42187,-3.27891 -7.42187,-7.31899l0,-257.53326c2.33047,0.81973 4.80195,1.35401 7.42187,1.35401l74.21133,0c2.61992,0 5.09141,-0.52697 7.42187,-1.35401l0,257.53326zm-7.42187,-270.81722l-74.21133,0c-4.09687,0 -7.42187,-3.27891 -7.42187,-7.31899s3.325,-7.31899 7.42187,-7.31899l29.69492,0c0.02227,4.03276 3.325,7.28239 7.41445,7.28239s7.39219,-3.24963 7.41445,-7.28239l29.6875,0c4.09687,0 7.42187,3.27891 7.42187,7.31899s-3.325,7.31899 -7.42187,7.31899l0.00001,0zm89.04765,43.89929l-66.78203,0l0,-7.31899l66.78203,0l0,7.31899zm22.26562,36.60226c-4.09687,0 -7.42187,-3.27891 -7.42187,-7.31899l0,-73.20453c0,-4.04008 3.325,-7.31899 7.42187,-7.31899l59.39726,0c4.09687,0 7.42187,3.27891 7.42187,7.31899l0,73.20453c0,4.04008 -3.325,7.31899 -7.42187,7.31899l-59.39726,0zm-37.08711,197.62734l-14.85117,0l0,-87.84982l14.85117,0l0,87.84982zm0,-102.4878l-14.85117,0l0,-14.63798l14.85117,0l0,14.63798zm29.68008,102.4878l-14.83633,0l0,-87.84982l14.83633,0l0,87.84982zm0,-102.4878l-14.83633,0l0,-14.63798l14.83633,0l0,14.63798zm29.68008,102.4878l-14.83633,0l0,-87.84982l14.83633,0l0,87.84982zm0,-102.4878l-14.83633,0l0,-14.63798l14.83633,0l0,14.63798zm11.15508,-29.27596l-7.42187,0l0,-51.2256l7.42187,0l0,51.2256zm18.525,131.76376l-14.83633,0l0,-87.84982l14.83633,0l0,87.84982zm0,-102.4878l-14.83633,0l0,-14.63798l14.83633,0l0,14.63798zm29.71719,102.4878l-14.87344,0l0,-87.84982l14.87344,0l0,87.84982zm0,-102.4878l-14.87344,0l0,-14.63798l14.87344,0l0,14.63798zm29.6875,102.4878l-14.84375,0l0,-87.84982l14.84375,0l0,87.84982zm0,-102.4878l-14.84375,0l0,-14.63798l14.84375,0l0,14.63798z" id="svg_1" stroke="null"/>
 </g>
</svg>
