<svg width="512.054" height="512.054" xmlns="http://www.w3.org/2000/svg">
 <g>
  <title>background</title>
  <rect x="-1" y="-1" width="514.054" height="514.054" id="canvas_background" fill="none"/>
 </g>

 <g>
  <title>Layer 1</title>
  <path fill="#ffffff" stroke="#FFFFFF" stroke-width="20" d="m505.40835,240.082l-233.472,-233.471c-8.771,-8.771 -23.046,-8.771 -31.819,0l-233.471,233.471c-6.557,6.558 -8.425,15.953 -4.876,24.52s11.514,13.889 20.786,13.889l22.471,0l0,94.265c0,4.142 3.357,7.5 7.5,7.5s7.5,-3.358 7.5,-7.5l0,-101.765c0,-4.142 -3.357,-7.5 -7.5,-7.5l-29.971,0c-4.649,0 -6.479,-3.543 -6.929,-4.629c-0.449,-1.086 -1.662,-4.885 1.626,-8.173l233.47,-233.47c2.926,-2.924 7.685,-2.923 10.606,0l233.471,233.47c3.288,3.288 2.075,7.087 1.626,8.173c-0.45,1.086 -2.279,4.629 -6.929,4.629l-29.971,0c-4.143,0 -7.5,3.358 -7.5,7.5l0,226.031l-120.666,0l0,-197.5c0,-4.142 -3.357,-7.5 -7.5,-7.5l-135.666,0c-4.143,0 -7.5,3.358 -7.5,7.5l0,197.5l-120.667,0l0,-94.266c0,-4.142 -3.357,-7.5 -7.5,-7.5s-7.5,3.358 -7.5,7.5l0,101.766c0,4.142 3.357,7.5 7.5,7.5l135.667,0c4.143,0 7.5,-3.358 7.5,-7.5l0,-197.5l120.666,0l0,197.5c0,4.142 3.357,7.5 7.5,7.5l135.667,0c4.143,0 7.5,-3.358 7.5,-7.5l0,-226.031l22.471,0c9.272,0 17.237,-5.322 20.786,-13.889s1.681,-17.962 -4.876,-24.52z" id="svg_1"/>
 </g>
</svg>
