<?xml version="1.0" encoding="UTF-8"?>
<!-- Generated by Pixelmator Pro 3.2.3 -->
<svg width="800" height="512" viewBox="0 0 800 512" xmlns="http://www.w3.org/2000/svg" xmlns:xlink="http://www.w3.org/1999/xlink">
    <g id="Group">
        <path id="canvasbackground" fill="none" stroke="none" d="M 143 -1.054016 L 657.054016 -1.054016 L 657.054016 513 L 143 513 Z"/>
    </g>
    <g id="g1">
        <path id="svg1" fill="#ffffff" stroke="#ffffff" stroke-width="20" stroke-linecap="round" stroke-linejoin="round" d="M 649.408325 240.028015 L 415.93634 6.557007 C 407.165344 -2.213989 392.89035 -2.213989 384.11734 6.557007 L 150.646347 240.028015 C 144.089355 246.585999 142.221344 255.981018 145.770355 264.547974 C 149.319351 273.11499 157.284348 278.437012 166.556351 278.437012 L 189.027344 278.437012 L 189.027344 372.702026 C 189.027344 376.843994 192.384354 380.202026 196.527344 380.202026 C 200.670349 380.202026 204.027344 376.843994 204.027344 372.702026 L 204.027344 270.937012 C 204.027344 266.794983 200.670349 263.437012 196.527344 263.437012 L 166.556351 263.437012 C 161.907349 263.437012 160.077347 259.893982 159.62735 258.807983 C 159.178345 257.721985 157.965347 253.923004 161.253342 250.63501 L 394.723328 17.165009 C 397.649353 14.240997 402.408356 14.242004 405.329346 17.165009 L 638.800354 250.63501 C 642.088318 253.923004 640.875305 257.721985 640.426331 258.807983 C 639.976318 259.893982 638.147339 263.437012 633.497314 263.437012 L 603.526306 263.437012 C 599.383362 263.437012 596.026306 266.794983 596.026306 270.937012 L 596.026306 496.968018 L 475.360352 496.968018 L 475.360352 299.468018 C 475.360352 295.325989 472.003357 291.968018 467.860352 291.968018 L 332.194336 291.968018 C 328.051331 291.968018 324.694336 295.325989 324.694336 299.468018 L 324.694336 496.968018 L 204.027344 496.968018 L 204.027344 402.702026 C 204.027344 398.559998 200.670349 395.202026 196.527344 395.202026 C 192.384354 395.202026 189.027344 398.559998 189.027344 402.702026 L 189.027344 504.468018 C 189.027344 508.610016 192.384354 511.967987 196.527344 511.967987 L 332.194336 511.967987 C 336.337341 511.967987 339.694336 508.610016 339.694336 504.468018 L 339.694336 306.968018 L 460.360352 306.968018 L 460.360352 504.468018 C 460.360352 508.610016 463.717346 511.967987 467.860352 511.967987 L 603.527344 511.967987 C 607.670349 511.967987 611.027344 508.610016 611.027344 504.468018 L 611.027344 278.437012 L 633.498352 278.437012 C 642.770325 278.437012 650.735352 273.11499 654.284363 264.547974 C 657.833374 255.981018 655.965332 246.585999 649.408325 240.028015 Z"/>
    </g>
</svg>
