<?xml version="1.0" encoding="utf-8"?>
<!DOCTYPE svg PUBLIC "-//W3C//DTD SVG 1.1//EN" "http://www.w3.org/Graphics/SVG/1.1/DTD/svg11.dtd">
<svg version="1.1" xmlns="http://www.w3.org/2000/svg" xmlns:xlink="http://www.w3.org/1999/xlink" x="0px" y="0px" viewBox="0 0 1000 1000" enable-background="new 0 0 1000 1000" xml:space="preserve">
<metadata> Svg Vector Icons : http://www.onlinewebfonts.com/icon </metadata>
<g><g transform="translate(0.000000,512.000000) scale(0.100000,-0.100000)"><path fill="#50a8f7" stroke-width="20" d="M4578.8,4986.9c-1246.2-170.4-2285.7-1026.1-2678.1-2209.1c-174.2-524.5-212.5-1175.4-105.3-1789.9c172.3-993.5,677.7-1765,1604.2-2450.3c151.2-111,220.1-199.1,260.3-327.4c23-67,21.1-76.6-9.6-95.7c-82.3-45.9-201-172.3-241.2-250.8c-59.3-124.4-47.9-333.1,26.8-446c53.6-80.4,53.6-80.4,17.2-132.1c-109.1-157-105.3-434.6,5.7-559c23-26.8,19.1-44-28.7-141.7c-160.8-315.9,28.7-671.9,379-714c78.5-9.6,99.6-3.8,143.6,34.5c78.5,68.9,86.1,149.3,23,224c-32.5,38.3-68.9,61.3-99.5,61.3c-55.5,0-120.6,32.5-153.1,74.7c-36.4,45.9-28.7,145.5,11.5,195.2l36.4,45.9l894,9.6l894,9.6l45.9,53.6c55.5,65.1,59.4,145.5,9.6,206.7l-36.4,46l-890.2,9.6l-890.2,9.6l-49.8,46c-61.3,57.4-65.1,149.3-9.6,218.2l38.3,49.8l890.2,5.7l892.1,5.7l45.9,53.6c55.5,65.1,59.4,145.5,7.7,210.6l-40.2,49.8l-888.2,5.7l-886.3,5.7l-49.8,45.9c-68.9,65.1-68.9,168.5,0,233.6l49.8,45.9l886.3,5.7l888.2,5.8l38.3,49.8c53.6,65.1,49.8,145.5-5.7,210.6l-45.9,53.6l-773.4,5.7l-773.4,5.8l-24.9,90c-34.5,139.8-105.3,277.6-183.8,365.6c-40.2,44-172.3,153.2-294.8,245c-275.7,206.7-679.6,608.7-844.2,842.3c-371.4,530.3-541.7,1035.6-593.4,1759.3c-23,308.2-1.9,643.2,57.4,911.2C2387,3537.8,3302,4418.4,4483.1,4644.2c248.9,47.9,783,47.9,1024.2,1.9c817.4-158.9,1498.9-608.8,1946.9-1286.4c361.8-545.6,522.6-1185,474.7-1889.4C7881,750.5,7701.1,222.2,7322.1-311.9c-153.2-216.3-562.8-622.1-830.8-823.1c-122.5-90-254.6-201-294.8-245c-99.6-111-176.1-287.1-202.9-461.3c-32.5-224-3.8-292.9,135.9-323.5c111-24.9,172.3-82.3,172.3-160.8c0-88-61.3-157-155-172.3c-128.3-23-193.4-118.7-153.1-225.9c21-53.6,116.8-109.1,191.4-109.1c51.7,0,116.8-90,116.8-162.7c0-70.8-59.3-134-143.6-153.1c-112.9-24.9-124.4-32.5-155-88c-34.5-67-23-151.2,26.8-195.3c19.1-17.2,70.8-38.3,118.7-49.8c128.3-28.7,185.7-126.3,141.7-241.2c-32.5-82.3-74.7-86.1-984-86.1h-863.4l-45.9-47.9c-45.9-44-47.9-57.4-47.9-283.3c0-279.5,26.8-379,132.1-488.1c128.3-132.1,181.9-147.4,518.8-147.4c329.3,0,386.7,15.3,507.3,134c93.8,93.8,132.1,191.4,139.7,359.9l7.7,147.4h271.8c183.8,0,302.5,9.6,367.5,28.7c287.1,84.2,417.3,411.6,275.7,691.1c-47.9,97.6-51.7,114.9-28.7,141.7c113,124.4,114.9,402,5.7,560.9c-36.4,51.7-36.4,51.7,0,105.3c80.4,114.9,101.5,279.5,57.4,432.6c-23,76.6-149.3,222.1-243.1,281.4c-45.9,28.7-45.9,28.7-13.4,124.4c38.3,116.8,118.7,218.2,237.4,298.6c271.8,183.8,694.9,576.2,901.7,838.5c409.6,515,658.5,1121.8,750.4,1828.2c36.4,287.1,28.7,844.2-19.1,1104.6C7911.7,4027.8,6294.1,5220.5,4578.8,4986.9z M5325.4-4242c0-91.9-7.7-112.9-55.5-162.7c-55.5-55.5-59.3-55.5-269.9-55.5c-210.6,0-214.4,0-269.9,55.5c-47.9,49.8-55.5,70.8-55.5,162.7v107.2H5000h325.4V-4242z"/><path fill="#50a8f7" stroke-width="20" d="M1295.8,4935.2c-90-51.7-114.9-168.5-51.7-241.2c63.2-74.7,656.6-560.9,704.5-578.1c120.6-45.9,246.9,90,193.3,210.6c-19.1,44-536,497.7-683.4,599.2C1404.9,4963.9,1349.4,4965.8,1295.8,4935.2z"/><path fill="#50a8f7" stroke-width="20" d="M8556.8,4937.1c-93.8-53.6-679.6-562.8-702.6-610.7c-23-45.9-23-65.1-1.9-116.8c30.6-72.7,128.3-120.6,197.2-95.7c46,17.2,671.9,534.1,717.9,591.5c28.7,38.3,28.7,137.8-1.9,178C8713.8,4950.5,8620,4975.4,8556.8,4937.1z"/><path fill="#50a8f7" stroke-width="20" d="M507.1,3526.3c-57.4-9.6-120.6-91.9-120.6-158.9c0-101.5,63.2-139.7,488.1-292.9c222.1-80.4,426.9-145.5,455.6-145.5c72.8,0,147.4,78.5,147.4,151.2c0,107.2-59.3,145.5-459.4,291C587.5,3528.2,564.5,3535.9,507.1,3526.3z"/><path fill="#50a8f7" stroke-width="20" d="M9372.3,3512.9c-118.7-38.3-719.8-260.4-763.8-283.3c-59.3-30.6-84.2-74.7-86.1-143.6c0-78.5,72.7-157,145.5-157c91.9,0,855.7,287.1,903.6,338.8c51.7,57.4,53.6,137.8,3.8,201C9529.3,3530.1,9468,3541.6,9372.3,3512.9z"/><path fill="#50a8f7" stroke-width="20" d="M3728.9,2714.6c-155.1-21-298.6-91.9-423.1-208.7c-195.3-183.8-266.1-365.6-254.6-639.4c5.7-151.2,15.3-193.3,70.8-304.4c72.7-149.3,214.4-298.6,346.5-365.6c164.6-82.3,291-105.3,597.3-105.3h283.3V-84.1v-1175.4l59.3-49.8c76.6-65.1,141.7-63.2,210.6,5.7l55.5,55.5V-78.4v1169.6H5000h325.4V-78.4V-1248l55.5-55.5c34.5-32.5,76.6-55.5,107.2-55.5c30.6,0,72.7,23,107.2,55.5l55.5,55.5V-78.4v1169.6h283.3c306.3,0,432.6,23,597.3,105.3c132.1,67,273.8,216.3,346.5,365.6c55.5,111,65.1,153.1,70.8,304.4c11.5,273.7-59.3,455.6-254.6,639.4c-444.1,421.2-1185,204.8-1338.1-390.5c-21.1-78.5-30.6-202.9-30.6-405.8v-292.9H5000h-325.4v292.9c0,335-24.9,463.3-120.6,624.1C4385.5,2613.2,4069.6,2760.6,3728.9,2714.6z M4079.2,2343.2c116.8-59.3,218.2-183.8,248.9-308.2c11.5-44,21.1-201,21.1-348.4v-269.9H4085c-344.6,0-436.5,24.9-570.5,160.8c-105.3,105.3-141.7,187.6-141.7,335c0,185.7,107.2,358,271.8,440.3C3767.2,2412.2,3947.1,2408.3,4079.2,2343.2z M6353.4,2352.8c296.7-143.6,367.6-547.5,137.8-781c-120.6-122.5-201-143.6-537.9-151.2l-302.5-7.7v275.7c0,313.9,24.9,426.9,114.9,536C5895.9,2383.4,6167.7,2442.8,6353.4,2352.8z"/><path fill="#50a8f7" stroke-width="20" d="M154.9,1858.9c-70.8-70.8-72.7-149.3-7.7-220.1l45.9-49.8h476.7h476.7l44,47.9c65.1,70.8,63.2,172.3-7.7,231.6c-51.7,45.9-55.5,45.9-511.1,45.9H210.4L154.9,1858.9z"/><path fill="#50a8f7" stroke-width="20" d="M8821,1872.3c-76.6-67-82.3-149.3-21-222.1l51.7-61.3h476.7h478.6l46,49.8c65.1,70.8,63.2,149.3-7.7,220.1l-55.5,55.5h-461.4C8878.4,1914.4,8868.8,1912.5,8821,1872.3z"/></g></g>
</svg>
