M48
;GenerationSoftware,Autodesk,EAGLE,9.6.0*%
;CreationDate,2024-12-21T17:41:38Z*%
FMAT,2
ICI,OFF
METRIC,TZ,000.000
T6C0.550
T5C0.813
T4C1.000
T3C1.016
T2C1.194
T1C3.150
%
G90
M71
T1
X3175Y54292
X3175Y2857
X74930Y53975
X63182Y2857
T2
X6985Y14565
X6985Y9565
X6985Y22900
X6985Y27900
T3
X64770Y26670
X67310Y49530
X64770Y49530
X62230Y49530
X59690Y49530
X57150Y49530
X54610Y49530
X52070Y49530
X49530Y49530
X67310Y26670
X62230Y26670
X59690Y26670
X57150Y26670
X54610Y26670
X52070Y26670
X49530Y26670
X72390Y20638
X72390Y23177
X72390Y13335
X72390Y15875
X72390Y5715
X72390Y8255
X22542Y28257
X25082Y28257
X27622Y28257
X30162Y28257
T4
X35878Y33576
X35878Y48974
X6429Y38656
X6429Y43736
T5
X60960Y20003
X58420Y20003
X55880Y20003
X53340Y20003
X50800Y20003
X48260Y20003
X63500Y20003
X66040Y20003
X58420Y12382
X60960Y12382
X55880Y12382
X53340Y12382
X66040Y12382
X63500Y12382
X50800Y12382
X48260Y12382
X43180Y11430
X43180Y21590
T6
X59690Y45402
X34608Y45402
M30